# xmcd
#
# Track frame offsets: 
#        150
#        23316
#        44183
#        65385
#        90411
#        109147
#        125271
#        146925
#        165473
#        186124
#        209840
#        229342
#        255455
#        270875
#        289088
#
# Disc length: 4075 seconds
#
# Revision: 2
# Processed by: cddbd v1.5.2PL0 Copyright (c) Steve Scherf et al.
# Submitted via: ExactAudioCopy v1.3
#
DISCID=d60fe90f
DTITLE=The Cash Box Kings - Black Night Fallin'
DYEAR=2005
DGENRE=Chicago Blues, Delta Blues
TTITLE0=Sarah
TTITLE1=Lost Sheep Blues
TTITLE2=Shur Fine Woman
TTITLE3=Fall Asleep and Cry
TTITLE4=Roll Steady
TTITLE5=Blues Through the Wintertime
TTITLE6=Baby Dropped an Axe on Me
TTITLE7=Baby Without You
TTITLE8='48' Blues
TTITLE9=Now I'm Free
TTITLE10=Juju
TTITLE11=Pick Up the Pieces
TTITLE12=Horizon Blues
TTITLE13=My Variety
TTITLE14=Sugar Pea
EXTD=
EXTT0=
EXTT1=
EXTT2=
EXTT3=
EXTT4=
EXTT5=
EXTT6=
EXTT7=
EXTT8=
EXTT9=
EXTT10=
EXTT11=
EXTT12=
EXTT13=
EXTT14=
PLAYORDER=
